<svg width="396" height="142" viewBox="0 0 396 142" fill="none" xmlns="http://www.w3.org/2000/svg">
<path d="M160.888 11.856C160.848 11.944 160.78 11.988 160.684 11.988H160.372C160.252 11.988 160.18 11.932 160.156 11.82L158.308 3.876C158.3 3.812 158.316 3.752 158.356 3.696C158.396 3.64 158.452 3.612 158.524 3.612H158.968C159.08 3.612 159.148 3.668 159.172 3.78L160.6 9.948C160.608 9.98 160.628 10 160.66 10.008C160.692 10.008 160.716 9.992 160.732 9.96L162.652 5.268C162.684 5.18 162.748 5.136 162.844 5.136C162.94 5.136 163.008 5.18 163.048 5.268L164.968 9.96C164.976 9.992 164.996 10.008 165.028 10.008C165.068 10 165.088 9.98 165.088 9.948L166.528 3.78C166.552 3.668 166.62 3.612 166.732 3.612H167.176C167.224 3.612 167.264 3.628 167.296 3.66C167.336 3.684 167.364 3.716 167.38 3.756C167.396 3.796 167.396 3.836 167.38 3.876L165.544 11.82C165.52 11.932 165.448 11.988 165.328 11.988H165.016C164.92 11.988 164.852 11.944 164.812 11.856L162.916 7.2C162.9 7.176 162.876 7.164 162.844 7.164C162.82 7.164 162.8 7.176 162.784 7.2L160.888 11.856ZM173.728 11.124C173.784 11.124 173.832 11.144 173.872 11.184C173.912 11.224 173.932 11.276 173.932 11.34V11.772C173.932 11.836 173.912 11.888 173.872 11.928C173.832 11.968 173.784 11.988 173.728 11.988H169.036C168.972 11.988 168.92 11.968 168.88 11.928C168.84 11.888 168.82 11.836 168.82 11.772V3.828C168.82 3.788 168.828 3.752 168.844 3.72C168.868 3.688 168.896 3.664 168.928 3.648C168.96 3.632 168.996 3.624 169.036 3.624H173.728C173.784 3.624 173.832 3.644 173.872 3.684C173.912 3.724 173.932 3.772 173.932 3.828V4.272C173.932 4.328 173.912 4.376 173.872 4.416C173.832 4.456 173.784 4.476 173.728 4.476H169.888C169.832 4.476 169.784 4.5 169.744 4.548C169.704 4.588 169.684 4.636 169.684 4.692V7.44C169.684 7.496 169.704 7.544 169.744 7.584C169.784 7.624 169.832 7.644 169.888 7.644H172.252C172.308 7.644 172.356 7.668 172.396 7.716C172.444 7.756 172.468 7.804 172.468 7.86V8.292C172.468 8.356 172.444 8.408 172.396 8.448C172.356 8.488 172.308 8.508 172.252 8.508H169.888C169.832 8.508 169.784 8.528 169.744 8.568C169.704 8.608 169.684 8.66 169.684 8.724V10.92C169.684 10.976 169.704 11.024 169.744 11.064C169.784 11.104 169.832 11.124 169.888 11.124H173.728ZM175.598 11.988C175.534 11.988 175.482 11.968 175.442 11.928C175.402 11.888 175.382 11.836 175.382 11.772V3.828C175.382 3.788 175.39 3.752 175.406 3.72C175.43 3.688 175.458 3.664 175.49 3.648C175.522 3.624 175.558 3.612 175.598 3.612H176.03C176.086 3.612 176.134 3.636 176.174 3.684C176.222 3.724 176.246 3.772 176.246 3.828V10.92C176.246 10.976 176.266 11.024 176.306 11.064C176.346 11.104 176.394 11.124 176.45 11.124H180.086C180.15 11.124 180.202 11.144 180.242 11.184C180.282 11.224 180.302 11.276 180.302 11.34V11.772C180.302 11.836 180.282 11.888 180.242 11.928C180.202 11.968 180.15 11.988 180.086 11.988H175.598ZM185.622 4.38C185.086 4.38 184.586 4.536 184.122 4.848C183.666 5.152 183.306 5.568 183.042 6.096C182.778 6.616 182.646 7.188 182.646 7.812C182.646 8.756 182.934 9.564 183.51 10.236C184.094 10.9 184.798 11.232 185.622 11.232C186.35 11.232 186.99 10.964 187.542 10.428C187.638 10.34 187.734 10.34 187.83 10.428L188.154 10.716C188.194 10.756 188.214 10.808 188.214 10.872C188.222 10.936 188.202 10.988 188.154 11.028C187.434 11.74 186.59 12.096 185.622 12.096C184.926 12.096 184.282 11.904 183.69 11.52C183.106 11.136 182.642 10.616 182.298 9.96C181.954 9.304 181.782 8.588 181.782 7.812C181.782 7.036 181.954 6.32 182.298 5.664C182.642 5 183.106 4.48 183.69 4.104C184.282 3.72 184.926 3.528 185.622 3.528C186.158 3.528 186.67 3.648 187.158 3.888C187.646 4.12 188.07 4.452 188.43 4.884C188.47 4.932 188.486 4.988 188.478 5.052C188.47 5.108 188.442 5.152 188.394 5.184L188.046 5.448C187.942 5.528 187.846 5.52 187.758 5.424C187.574 5.2 187.366 5.012 187.134 4.86C186.91 4.7 186.666 4.58 186.402 4.5C186.146 4.42 185.886 4.38 185.622 4.38ZM195.671 11.52C195.103 11.896 194.483 12.084 193.811 12.084C193.139 12.084 192.519 11.896 191.951 11.52C191.383 11.136 190.931 10.62 190.595 9.972C190.267 9.316 190.103 8.604 190.103 7.836C190.103 7.06 190.267 6.348 190.595 5.7C190.931 5.044 191.383 4.528 191.951 4.152C192.519 3.768 193.139 3.576 193.811 3.576C194.483 3.576 195.103 3.768 195.671 4.152C196.239 4.528 196.687 5.044 197.015 5.7C197.351 6.348 197.519 7.06 197.519 7.836C197.519 8.604 197.351 9.316 197.015 9.972C196.687 10.62 196.239 11.136 195.671 11.52ZM195.827 5.436C195.267 4.764 194.595 4.428 193.811 4.428C193.027 4.428 192.355 4.76 191.795 5.424C191.243 6.088 190.967 6.892 190.967 7.836C190.967 8.772 191.243 9.572 191.795 10.236C192.355 10.9 193.027 11.232 193.811 11.232C194.331 11.232 194.807 11.08 195.239 10.776C195.679 10.472 196.027 10.06 196.283 9.54C196.539 9.012 196.667 8.444 196.667 7.836C196.667 6.9 196.387 6.1 195.827 5.436ZM200.613 5.952C200.597 5.928 200.573 5.92 200.541 5.928C200.517 5.928 200.501 5.944 200.493 5.976L200.073 11.796C200.065 11.82 200.057 11.844 200.049 11.868C200.041 11.892 200.025 11.912 200.001 11.928C199.985 11.944 199.965 11.96 199.941 11.976C199.917 11.984 199.889 11.988 199.857 11.988H199.425C199.361 11.988 199.305 11.968 199.257 11.928C199.217 11.88 199.201 11.824 199.209 11.76L199.797 3.816C199.797 3.776 199.805 3.744 199.821 3.72C199.845 3.688 199.873 3.664 199.905 3.648C199.937 3.624 199.969 3.612 200.001 3.612H200.313C200.401 3.612 200.465 3.652 200.505 3.732L203.133 9.216C203.149 9.24 203.169 9.252 203.193 9.252C203.217 9.252 203.237 9.24 203.253 9.216L205.881 3.732C205.921 3.652 205.985 3.612 206.073 3.612H206.385C206.441 3.612 206.489 3.632 206.529 3.672C206.569 3.712 206.589 3.76 206.589 3.816L207.177 11.76C207.177 11.824 207.157 11.88 207.117 11.928C207.077 11.968 207.025 11.988 206.961 11.988H206.517C206.469 11.988 206.421 11.972 206.373 11.94C206.333 11.9 206.313 11.852 206.313 11.796L205.881 5.976C205.881 5.944 205.865 5.928 205.833 5.928C205.801 5.92 205.781 5.928 205.773 5.952L203.385 10.92C203.345 11 203.281 11.04 203.193 11.04C203.105 11.04 203.041 11 203.001 10.92L200.613 5.952ZM213.993 11.124C214.049 11.124 214.097 11.144 214.137 11.184C214.177 11.224 214.197 11.276 214.197 11.34V11.772C214.197 11.836 214.177 11.888 214.137 11.928C214.097 11.968 214.049 11.988 213.993 11.988H209.301C209.237 11.988 209.185 11.968 209.145 11.928C209.105 11.888 209.085 11.836 209.085 11.772V3.828C209.085 3.788 209.093 3.752 209.109 3.72C209.133 3.688 209.161 3.664 209.193 3.648C209.225 3.632 209.261 3.624 209.301 3.624H213.993C214.049 3.624 214.097 3.644 214.137 3.684C214.177 3.724 214.197 3.772 214.197 3.828V4.272C214.197 4.328 214.177 4.376 214.137 4.416C214.097 4.456 214.049 4.476 213.993 4.476H210.153C210.097 4.476 210.049 4.5 210.009 4.548C209.969 4.588 209.949 4.636 209.949 4.692V7.44C209.949 7.496 209.969 7.544 210.009 7.584C210.049 7.624 210.097 7.644 210.153 7.644H212.517C212.573 7.644 212.621 7.668 212.661 7.716C212.709 7.756 212.733 7.804 212.733 7.86V8.292C212.733 8.356 212.709 8.408 212.661 8.448C212.621 8.488 212.573 8.508 212.517 8.508H210.153C210.097 8.508 210.049 8.528 210.009 8.568C209.969 8.608 209.949 8.66 209.949 8.724V10.92C209.949 10.976 209.969 11.024 210.009 11.064C210.049 11.104 210.097 11.124 210.153 11.124H213.993ZM222.732 11.808C222.732 11.864 222.708 11.916 222.66 11.964C222.62 12.004 222.572 12.024 222.516 12.024H222.084C222.02 12.024 221.968 12.004 221.928 11.964C221.888 11.916 221.868 11.864 221.868 11.808V4.692C221.868 4.636 221.844 4.588 221.796 4.548C221.756 4.5 221.708 4.476 221.652 4.476H219.552C219.496 4.476 219.444 4.456 219.396 4.416C219.356 4.376 219.336 4.324 219.336 4.26V3.828C219.336 3.772 219.356 3.724 219.396 3.684C219.444 3.644 219.496 3.624 219.552 3.624H225.048C225.112 3.624 225.164 3.644 225.204 3.684C225.244 3.724 225.264 3.772 225.264 3.828V4.26C225.264 4.324 225.244 4.376 225.204 4.416C225.164 4.456 225.112 4.476 225.048 4.476H222.948C222.884 4.476 222.832 4.5 222.792 4.548C222.752 4.588 222.732 4.636 222.732 4.692V11.808ZM231.894 11.52C231.326 11.896 230.706 12.084 230.034 12.084C229.362 12.084 228.742 11.896 228.174 11.52C227.606 11.136 227.154 10.62 226.818 9.972C226.49 9.316 226.326 8.604 226.326 7.836C226.326 7.06 226.49 6.348 226.818 5.7C227.154 5.044 227.606 4.528 228.174 4.152C228.742 3.768 229.362 3.576 230.034 3.576C230.706 3.576 231.326 3.768 231.894 4.152C232.462 4.528 232.91 5.044 233.238 5.7C233.574 6.348 233.742 7.06 233.742 7.836C233.742 8.604 233.574 9.316 233.238 9.972C232.91 10.62 232.462 11.136 231.894 11.52ZM232.05 5.436C231.49 4.764 230.818 4.428 230.034 4.428C229.25 4.428 228.578 4.76 228.018 5.424C227.466 6.088 227.19 6.892 227.19 7.836C227.19 8.772 227.466 9.572 228.018 10.236C228.578 10.9 229.25 11.232 230.034 11.232C230.554 11.232 231.03 11.08 231.462 10.776C231.902 10.472 232.25 10.06 232.506 9.54C232.762 9.012 232.89 8.444 232.89 7.836C232.89 6.9 232.61 6.1 232.05 5.436ZM75.3377 43.32C76.2444 43.1333 77.4311 42.8933 78.8977 42.6C79.1111 42.5467 79.4444 42.4667 79.8977 42.36V54.96H75.3377V43.32ZM64.5777 52.4C66.2577 51.2533 67.5377 49.7067 68.4177 47.76L70.1377 49.2C68.9911 50.96 67.4711 52.3867 65.5777 53.48C63.3377 54.7867 60.6711 55.44 57.5777 55.44C54.4577 55.44 51.7777 54.8 49.5377 53.52C47.2977 52.24 45.6044 50.52 44.4577 48.36C43.3377 46.1733 42.7777 43.76 42.7777 41.12C42.7777 38.48 43.3377 36.08 44.4577 33.92C45.6044 31.7333 47.2977 30 49.5377 28.72C51.7777 27.4133 54.4577 26.76 57.5777 26.76C60.7244 26.76 63.4177 27.4133 65.6577 28.72C67.4177 29.7333 68.8444 31.04 69.9377 32.64L68.2177 34.08C67.3377 32.32 66.1244 30.8933 64.5777 29.8C62.8711 28.6267 60.8044 28.04 58.3777 28.04C55.9777 28.04 53.9244 28.64 52.2177 29.84C50.5111 31.0133 49.2177 32.5867 48.3377 34.56C47.4577 36.5067 47.0177 38.6933 47.0177 41.12C47.0177 43.52 47.4577 45.7067 48.3377 47.68C49.2177 49.6533 50.5111 51.2267 52.2177 52.4C53.9244 53.5467 55.9777 54.12 58.3777 54.12C60.8044 54.12 62.8711 53.5467 64.5777 52.4ZM100.658 27.2H105.218V54.96H100.658V42.08C97.1911 40.6667 93.6577 39.96 90.0577 39.96C90.0311 39.96 90.0044 39.96 89.9777 39.96C87.9777 39.96 84.3644 40.52 79.1377 41.64C73.8577 42.76 70.1911 43.32 68.1377 43.32C64.4844 43.32 60.9511 42.88 57.5377 42L57.8577 40.84C61.1644 41.72 64.5911 42.16 68.1377 42.16C69.8177 42.16 72.2177 41.84 75.3377 41.2V27.2H79.8977V40.28C84.5644 39.2933 87.9244 38.7867 89.9777 38.76H90.0577C93.7111 38.76 97.2444 39.44 100.658 40.8V27.2ZM123.042 27.28L135.722 54.96H130.722L128.002 49.04H112.562L109.722 54.96H108.442L119.882 31.24L122.442 25.92L123.042 27.28ZM113.122 47.88H127.482L120.482 32.6L113.122 47.88ZM164.92 27.2H166.16V54.96H165.2C165.173 54.88 165.133 54.76 165.08 54.6C165.027 54.44 164.867 54.12 164.6 53.64C164.333 53.1333 164.013 52.6267 163.64 52.12C163.293 51.5867 162.773 50.9333 162.08 50.16C161.413 49.3867 160.667 48.6267 159.84 47.88C159.013 47.1333 157.96 46.32 156.68 45.44C155.4 44.5333 154.027 43.6667 152.56 42.84C146.16 39.4 141.893 36.32 139.76 33.6V54.8H138.52V27.2H140.52C142.627 30.88 146.8 34.4667 153.04 37.96C159.093 41.3467 163.053 44.5067 164.92 47.44V27.2ZM197.051 47.76L198.771 49.2C197.624 50.96 196.104 52.3867 194.211 53.48C191.971 54.7867 189.304 55.44 186.211 55.44C183.091 55.44 180.411 54.8 178.171 53.52C175.931 52.24 174.237 50.52 173.091 48.36C171.971 46.1733 171.411 43.76 171.411 41.12C171.411 38.48 171.971 36.08 173.091 33.92C174.237 31.7333 175.931 30 178.171 28.72C180.411 27.4133 183.091 26.76 186.211 26.76C189.357 26.76 192.051 27.4133 194.291 28.72C196.051 29.7333 197.477 31.04 198.571 32.64L196.851 34.08C195.971 32.32 194.757 30.8933 193.211 29.8C191.504 28.6267 189.437 28.04 187.011 28.04C184.611 28.04 182.557 28.64 180.851 29.84C179.144 31.0133 177.851 32.5867 176.971 34.56C176.091 36.5333 175.651 38.72 175.651 41.12C175.651 43.52 176.091 45.7067 176.971 47.68C177.851 49.6533 179.144 51.2267 180.851 52.4C182.557 53.5467 184.611 54.12 187.011 54.12C189.437 54.12 191.504 53.5467 193.211 52.4C194.891 51.2533 196.171 49.7067 197.051 47.76ZM271.28 48.48C271.414 48.24 271.534 48 271.64 47.76L273.36 49.2C273.2 49.4133 273.04 49.6267 272.88 49.84C272.747 50.0533 272.6 50.2533 272.44 50.44C271.614 51.4533 270.627 52.32 269.48 53.04C269.267 53.2 269.04 53.3467 268.8 53.48C267.12 54.44 265.2 55.04 263.04 55.28C262.32 55.3867 261.574 55.44 260.8 55.44C257.68 55.44 255 54.8 252.76 53.52C251.8 52.96 250.92 52.3067 250.12 51.56C249.347 50.8133 248.694 50 248.16 49.12C248 48.88 247.84 48.6133 247.68 48.32C247.414 47.7867 247.174 47.24 246.96 46.68C246.32 44.9733 246 43.12 246 41.12C246 40.08 246.094 39.0667 246.28 38.08C246.547 36.5867 247.014 35.1867 247.68 33.88C248.534 32.2533 249.694 30.88 251.16 29.76C251.667 29.3867 252.2 29.04 252.76 28.72C254.147 27.92 255.72 27.36 257.48 27.04C257.827 26.9867 258.187 26.9333 258.56 26.88C259.28 26.8 260.027 26.76 260.8 26.76C261.6 26.76 262.36 26.8 263.08 26.88C263.454 26.9333 263.814 26.9867 264.16 27.04C265.894 27.36 267.467 27.92 268.88 28.72C269.307 28.96 269.734 29.2267 270.16 29.52C271.04 30.1867 271.84 30.9733 272.56 31.88C272.88 32.2533 273.08 32.5067 273.16 32.64L271.44 34.08C271.227 33.6267 270.987 33.2133 270.72 32.84C270.454 32.44 270.174 32.0533 269.88 31.68C269.267 30.9867 268.574 30.36 267.8 29.8C266.094 28.6267 264.027 28.04 261.6 28.04C259.2 28.04 257.147 28.6267 255.44 29.8C254.8 30.2533 254.214 30.76 253.68 31.32C253.52 31.48 253.36 31.6667 253.2 31.88C252.56 32.68 252.014 33.5733 251.56 34.56C251.347 35.04 251.16 35.5467 251 36.08C250.92 36.32 250.84 36.5733 250.76 36.84C250.414 38.2 250.24 39.6267 250.24 41.12C250.24 43.52 250.68 45.7067 251.56 47.68C251.694 47.9467 251.814 48.1867 251.92 48.4C252.16 48.88 252.427 49.3333 252.72 49.76C252.88 49.9467 253.04 50.1467 253.2 50.36C253.84 51.1333 254.587 51.8133 255.44 52.4C256.507 53.12 257.707 53.6133 259.04 53.88C259.867 54.04 260.72 54.12 261.6 54.12C262.827 54.12 263.947 53.9867 264.96 53.72C265.227 53.64 265.48 53.5467 265.72 53.44C266.467 53.1733 267.16 52.8267 267.8 52.4C268.414 51.9733 268.987 51.48 269.52 50.92C270.214 50.2 270.8 49.3867 271.28 48.48ZM280.56 46.64C280.64 46.6667 280.734 46.7067 280.84 46.76C280.974 46.8133 281.054 46.8533 281.08 46.88C281.16 46.9067 281.254 46.9467 281.36 47C281.494 47.0267 281.574 47.0533 281.6 47.08L280.68 49.04L277.84 54.96H276.56L280.56 46.64ZM291.16 27.28L303.84 54.96H298.84L296.12 49.04L295.84 48.48L295.44 47.56C293.867 47.88 292.414 48.04 291.08 48.04C289.4 48.04 287.8 47.8533 286.28 47.48C284.787 47.1067 283.147 46.5467 281.36 45.8C279.734 45.1333 278.454 44.6267 277.52 44.28C276.587 43.9067 275.36 43.4667 273.84 42.96C272.32 42.4533 270.867 42.0933 269.48 41.88C268.094 41.64 266.72 41.52 265.36 41.52C262.16 41.52 259.054 42.08 256.04 43.2L255.6 42.08C258.774 40.9333 262.027 40.36 265.36 40.36C266.747 40.36 268.147 40.48 269.56 40.72C270.974 40.9333 272.427 41.28 273.92 41.76C275.44 42.24 276.694 42.68 277.68 43.08C278.667 43.4533 279.96 43.96 281.56 44.6L288 31.24L290.56 25.92L291.16 27.28ZM291.08 46.88C292.254 46.88 293.534 46.7333 294.92 46.44L288.6 32.6L282.6 45.04C285.64 46.2667 288.467 46.88 291.08 46.88ZM327.944 28.32H311.224V38.4H320.864V39.52H311.224V54.96H306.664V27.2H327.944V28.32ZM353.218 28.32H336.498V38.4H346.138V39.52H336.498V53.8H353.218V54.96H331.938V27.2H353.218V28.32Z" fill="white"/>
<path d="M226.88 28.32H210.16V38.4H219.8V39.52H210.16V53.8H226.88V54.96H205.6V27.2H226.88V28.32Z" fill="white"/>
</svg>
